<svg width="860" height="383" viewBox="0 0 860 383" fill="none" xmlns="http://www.w3.org/2000/svg">
<path d="M797.498 380.205C786.905 379.765 777.254 375.49 772.888 368.867C772.684 368.557 772.492 368.243 772.311 367.924C770.717 365.102 770.219 361.858 771.962 359.077C773.705 356.296 778.062 354.184 782.43 354.623C786.798 355.062 790.215 358.549 788.406 361.309C788.006 355.731 787.671 349.87 792.168 345.015C794.644 342.478 797.873 340.809 801.375 340.257C810.437 338.663 816.453 343.787 817.658 348.957C818.547 352.776 817.319 356.657 816.096 360.436C819.865 355.979 828.828 353.996 835.696 356.101C842.564 358.206 846.369 364.101 844.024 369.001C841.261 374.765 832.05 377.744 823.494 379.319C816.427 380.62 805.833 380.551 797.498 380.205Z" fill="#F2F2F2"/>
<path d="M62.509 380.205C73.102 379.765 82.753 375.49 87.118 368.867C87.3227 368.557 87.515 368.243 87.695 367.924C89.289 365.102 89.787 361.858 88.044 359.077C86.301 356.296 81.944 354.184 77.576 354.623C73.208 355.062 69.79 358.549 71.6 361.309C72 355.731 72.335 349.87 67.838 345.015C65.3626 342.478 62.1334 340.809 58.6319 340.257C49.5699 338.663 43.5539 343.787 42.3489 348.957C41.4599 352.776 42.6879 356.657 43.9109 360.436C40.1419 355.979 31.1789 353.996 24.3109 356.101C17.4429 358.206 13.6369 364.101 15.9829 369.001C18.7459 374.765 27.9569 377.744 36.5129 379.319C43.58 380.62 54.173 380.551 62.509 380.205Z" fill="#F2F2F2"/>
<path d="M859.113 379.236H0V382.68H859.113V379.236Z" fill="#CCCCCC"/>
<path d="M627.927 382.155H269.844C192.593 382.155 129.744 318.248 129.744 239.697C129.744 161.146 192.593 97.2396 269.844 97.2396H295.319C309.334 68.6641 330.931 44.4883 357.751 27.3514C384.964 9.95217 416.586 0.701781 448.886 0.692261C538.478 0.692261 613.154 71.1444 620.104 161.605H627.927C687.785 161.605 736.484 211.074 736.484 271.88C736.484 332.685 687.785 382.155 627.927 382.155ZM269.844 103.24C195.901 103.24 135.744 164.454 135.744 239.697C135.744 314.94 195.901 376.155 269.844 376.155H627.927C684.477 376.155 730.484 329.377 730.484 271.88C730.484 214.382 684.477 167.605 627.927 167.605H614.482L614.31 164.788C608.904 76.1361 536.241 6.69229 448.886 6.69229C385.982 6.69229 327.503 43.9208 299.903 101.536L299.087 103.24H269.844Z" fill="#3F3D56"/>
</svg>
