<svg width="175" height="183" viewBox="0 0 175 183" fill="none" xmlns="http://www.w3.org/2000/svg">
<path d="M86.8066 130.972C79.1314 130.972 71.6285 128.696 65.2468 124.432C58.8651 120.168 53.8912 114.107 50.954 107.016C48.0168 99.9252 47.2483 92.1225 48.7457 84.5948C50.243 77.067 53.939 70.1524 59.3662 64.7252C64.7934 59.298 71.7081 55.602 79.2358 54.1046C86.7635 52.6073 94.5662 53.3758 101.657 56.3129C108.748 59.2501 114.809 64.224 119.073 70.6057C123.337 76.9874 125.613 84.4903 125.613 92.1655C125.601 102.454 121.509 112.318 114.234 119.593C106.959 126.868 97.0951 130.96 86.8066 130.972ZM86.8066 59.8267C80.4106 59.8267 74.1582 61.7234 68.8401 65.2768C63.522 68.8302 59.3771 73.8809 56.9295 79.79C54.4818 85.6992 53.8414 92.2014 55.0892 98.4745C56.337 104.748 59.4169 110.51 63.9396 115.033C68.4623 119.555 74.2245 122.635 80.4976 123.883C86.7707 125.131 93.273 124.49 99.1821 122.043C105.091 119.595 110.142 115.45 113.695 110.132C117.249 104.814 119.145 98.5615 119.145 92.1655C119.136 83.5917 115.725 75.3718 109.663 69.3092C103.6 63.2466 95.3804 59.8364 86.8066 59.8267Z" fill="#0FBCF9"/>
<path d="M85.5331 43.6574C84.6754 43.6573 83.8529 43.3166 83.2464 42.7101C82.6399 42.1037 82.2992 41.2812 82.2992 40.4235V3.23387C82.2992 2.37619 82.6399 1.55364 83.2464 0.947174C83.8529 0.340704 84.6754 0 85.5331 0C86.3908 0 87.2133 0.340704 87.8198 0.947174C88.4262 1.55364 88.767 2.37619 88.767 3.23387V40.4235C88.7669 41.2812 88.4262 42.1037 87.8197 42.7102C87.2132 43.3166 86.3907 43.6573 85.5331 43.6574Z" fill="#0FBCF9"/>
<path d="M40.4235 94.4678H3.23386C2.37618 94.4678 1.55364 94.127 0.947174 93.5206C0.340704 92.9141 0 92.0916 0 91.2339C0 90.3762 0.340704 89.5536 0.947174 88.9472C1.55364 88.3407 2.37618 88 3.23386 88H40.4235C41.2812 88 42.1037 88.3407 42.7102 88.9472C43.3166 89.5536 43.6573 90.3762 43.6573 91.2339C43.6573 92.0916 43.3166 92.9141 42.7102 93.5206C42.1037 94.127 41.2812 94.4678 40.4235 94.4678H40.4235Z" fill="#0FBCF9"/>
<path d="M170.888 94.1267H133.698C132.84 94.1267 132.018 93.786 131.411 93.1795C130.805 92.573 130.464 91.7505 130.464 90.8928C130.464 90.0351 130.805 89.2126 131.411 88.6061C132.018 87.9996 132.84 87.6589 133.698 87.6589H170.888C171.745 87.6589 172.568 87.9996 173.174 88.6061C173.781 89.2126 174.121 90.0351 174.121 90.8928C174.121 91.7505 173.781 92.573 173.174 93.1795C172.568 93.786 171.745 94.1267 170.888 94.1267Z" fill="#0FBCF9"/>
<path d="M132.676 58.7672C132.032 58.7672 131.403 58.5751 130.869 58.2154C130.335 57.8557 129.921 57.3448 129.679 56.7482C129.437 56.1515 129.379 55.4963 129.512 54.8663C129.645 54.2364 129.962 53.6604 130.425 53.2122L145.999 38.1023C146.303 37.8057 146.663 37.5722 147.058 37.415C147.453 37.2578 147.876 37.18 148.301 37.1861C148.726 37.1922 149.145 37.282 149.536 37.4505C149.926 37.619 150.279 37.8628 150.575 38.1679C150.871 38.4731 151.104 38.8336 151.261 39.2289C151.417 39.6242 151.495 40.0464 151.488 40.4715C151.481 40.8966 151.39 41.3162 151.221 41.7062C151.052 42.0963 150.808 42.4492 150.502 42.7447L134.928 57.8545C134.325 58.441 133.517 58.7685 132.676 58.7672V58.7672Z" fill="#0FBCF9"/>
<path d="M40.812 58.5815C39.9711 58.5826 39.163 58.2551 38.5603 57.6688L22.9861 42.5589C22.6805 42.2634 22.4361 41.9106 22.267 41.5205C22.0978 41.1305 22.0072 40.7109 22.0004 40.2858C21.9936 39.8607 22.0706 39.4384 22.2272 39.0432C22.3837 38.6479 22.6167 38.2873 22.9127 37.9822C23.2087 37.677 23.562 37.4332 23.9524 37.2648C24.3427 37.0963 24.7624 37.0064 25.1876 37.0003C25.6127 36.9942 26.0348 37.072 26.4298 37.2292C26.8248 37.3865 27.1849 37.62 27.4896 37.9166L43.0636 53.0264C43.5257 53.4747 43.8436 54.0507 43.9764 54.6806C44.1092 55.3106 44.0509 55.9658 43.809 56.5624C43.5672 57.1591 43.1528 57.67 42.6188 58.0297C42.0849 58.3894 41.4558 58.5815 40.812 58.5815V58.5815Z" fill="#0FBCF9"/>
<path d="M25.2336 142.505C24.598 142.504 23.9767 142.317 23.4471 141.966C22.9174 141.615 22.503 141.115 22.2554 140.53C22.0079 139.945 21.9383 139.299 22.0553 138.675C22.1722 138.05 22.4706 137.474 22.9131 137.018L38.4873 120.979C39.0851 120.365 39.9024 120.013 40.7597 120C41.6169 119.988 42.444 120.317 43.0591 120.914C43.6741 121.511 44.0269 122.328 44.0398 123.186C44.0528 124.043 43.7248 124.87 43.1281 125.486L27.554 141.524C27.2526 141.835 26.8919 142.082 26.4933 142.25C26.0947 142.418 25.6663 142.505 25.2336 142.505V142.505Z" fill="#0FBCF9"/>
<path d="M151.484 150.375C151.053 150.376 150.625 150.29 150.228 150.123C149.83 149.955 149.471 149.709 149.17 149.4L130.362 130.127C130.065 129.824 129.83 129.464 129.672 129.07C129.514 128.675 129.435 128.254 129.44 127.829C129.445 127.404 129.533 126.984 129.701 126.593C129.868 126.202 130.111 125.849 130.415 125.552C130.719 125.255 131.079 125.021 131.473 124.863C131.868 124.706 132.29 124.627 132.715 124.633C133.14 124.638 133.559 124.728 133.95 124.896C134.34 125.063 134.694 125.307 134.99 125.611L153.798 144.883C154.243 145.339 154.543 145.915 154.662 146.54C154.78 147.165 154.712 147.811 154.465 148.398C154.217 148.984 153.803 149.484 153.273 149.836C152.743 150.188 152.12 150.376 151.484 150.375V150.375Z" fill="#0FBCF9"/>
<path d="M85.5331 182.714C84.6754 182.714 83.8529 182.373 83.2464 181.767C82.6399 181.161 82.2992 180.338 82.2992 179.48V142.291C82.2992 141.866 82.3828 141.445 82.5453 141.053C82.7079 140.661 82.9461 140.304 83.2464 140.004C83.5467 139.704 83.9032 139.465 84.2955 139.303C84.6879 139.14 85.1084 139.057 85.5331 139.057C85.9578 139.057 86.3783 139.14 86.7706 139.303C87.163 139.465 87.5195 139.704 87.8198 140.004C88.1201 140.304 88.3583 140.661 88.5208 141.053C88.6833 141.445 88.767 141.866 88.767 142.291V179.48C88.7669 180.338 88.4262 181.161 87.8198 181.767C87.2133 182.373 86.3907 182.714 85.5331 182.714V182.714Z" fill="#0FBCF9"/>
</svg>
